<svg xmlns="http://www.w3.org/2000/svg" width="18" height="20" viewBox="0 0 18 20" fill="none">
  <path d="M7.58333 17.5001C7.72282 17.7538 7.92787 17.9654 8.17708 18.1127C8.42628 18.2601 8.71048 18.3379 9 18.3379C9.28952 18.3379 9.57372 18.2601 9.82292 18.1127C10.0721 17.9654 10.2772 17.7538 10.4167 17.5001M4 6.66675C4 5.34067 4.52678 4.0689 5.46447 3.13121C6.40215 2.19353 7.67392 1.66675 9 1.66675C10.3261 1.66675 11.5979 2.19353 12.5355 3.13121C13.4732 4.0689 14 5.34067 14 6.66675C14 12.5001 16.5 14.1667 16.5 14.1667H1.5C1.5 14.1667 4 12.5001 4 6.66675Z" stroke="black" stroke-width="1.66667" stroke-linecap="round" stroke-linejoin="round"/>
</svg>