<svg width="20" height="20" viewBox="0 0 20 20" fill="none" xmlns="http://www.w3.org/2000/svg">
<g id="lucide:calendar-fold">
<g id="Group">
<path id="Vector" d="M6.66667 1.66675V5.00008M13.3333 1.66675V5.00008M2.5 8.33341H17.5M17.5 14.1667V5.00008C17.5 4.55805 17.3244 4.13413 17.0118 3.82157C16.6993 3.50901 16.2754 3.33341 15.8333 3.33341H4.16667C3.72464 3.33341 3.30072 3.50901 2.98816 3.82157C2.67559 4.13413 2.5 4.55805 2.5 5.00008V16.6667C2.5 17.1088 2.67559 17.5327 2.98816 17.8453C3.30072 18.1578 3.72464 18.3334 4.16667 18.3334H13.3333L17.5 14.1667Z" stroke="black" stroke-width="1.66667" stroke-linecap="round" stroke-linejoin="round"/>
<path id="Vector_2" d="M12.5 18.3335V15.0002C12.5 14.5581 12.6756 14.1342 12.9882 13.8217C13.3007 13.5091 13.7246 13.3335 14.1667 13.3335H17.5" stroke="black" stroke-width="1.66667" stroke-linecap="round" stroke-linejoin="round"/>
</g>
</g>
</svg>
