<svg width="19" height="19" viewBox="0 0 19 19" fill="none" xmlns="http://www.w3.org/2000/svg">
<path d="M6.58341 15.6666C8.1739 16.4825 10.0035 16.7035 11.7425 16.2898C13.4815 15.876 15.0155 14.8548 16.0682 13.4101C17.1209 11.9654 17.6229 10.1922 17.4839 8.41009C17.3449 6.62797 16.5739 4.9541 15.3099 3.69012C14.0459 2.42614 12.3721 1.65517 10.5899 1.51614C8.80782 1.37711 7.03464 1.87916 5.58993 2.93183C4.14522 3.9845 3.12399 5.51855 2.71027 7.25755C2.29654 8.99655 2.51753 10.8261 3.33341 12.4166L1.66675 17.3333L6.58341 15.6666Z" stroke="black" stroke-width="1.66667" stroke-linecap="round" stroke-linejoin="round"/>
<path d="M7.5752 6.49999C7.77112 5.94304 8.15782 5.47341 8.66682 5.17426C9.17583 4.87512 9.77427 4.76577 10.3562 4.86558C10.9381 4.96539 11.4659 5.26792 11.8461 5.71959C12.2263 6.17126 12.4344 6.74292 12.4335 7.33332C12.4335 8.99999 9.93353 9.83332 9.93353 9.83332M10.0002 13.1667H10.0085" stroke="black" stroke-width="1.66667" stroke-linecap="round" stroke-linejoin="round"/>
</svg>
