<svg width="160" height="160" viewBox="0 0 160 160" fill="none" xmlns="http://www.w3.org/2000/svg">
<path d="M66.6666 86.6666C69.5296 90.4942 73.1823 93.6612 77.377 95.9529C81.5716 98.2446 86.21 99.6074 90.9776 99.9489C95.7452 100.29 100.531 99.6024 105.009 97.9318C109.487 96.2613 113.554 93.6471 116.933 90.2666L136.933 70.2666C143.005 63.9799 146.365 55.5598 146.289 46.8199C146.213 38.08 142.708 29.7196 136.527 23.5394C130.347 17.3591 121.987 13.8535 113.247 13.7775C104.507 13.7016 96.0867 17.0614 89.8 23.1333L78.3333 34.5333" stroke="#2F2F2F" stroke-width="8" stroke-linecap="round" stroke-linejoin="round"/>
<path d="M93.3333 73.3333C90.4703 69.5058 86.8176 66.3388 82.623 64.0471C78.4284 61.7553 73.7899 60.3926 69.0223 60.0511C64.2547 59.7097 59.4694 60.3975 54.991 62.0681C50.5126 63.7387 46.4459 66.3529 43.0667 69.7333L23.0667 89.7333C16.9947 96.0201 13.6349 104.44 13.7109 113.18C13.7868 121.92 17.2924 130.28 23.4727 136.461C29.653 142.641 38.0134 146.147 46.7533 146.222C55.4932 146.298 63.9132 142.939 70.2 136.867L81.6 125.467" stroke="#2F2F2F" stroke-width="8" stroke-linecap="round" stroke-linejoin="round"/>
</svg>
