<svg width="20" height="20" viewBox="0 0 20 20" fill="none" xmlns="http://www.w3.org/2000/svg">
<path d="M9.99984 14.9999V9.99994M9.99984 9.99994V2.84161C9.99979 2.75887 10.0203 2.67741 10.0595 2.60454C10.0986 2.53166 10.1553 2.46965 10.2243 2.42406C10.2934 2.37847 10.3727 2.35073 10.4551 2.34332C10.5375 2.33591 10.6204 2.34907 10.6965 2.38161L17.7332 5.39828C17.8215 5.43615 17.8971 5.49869 17.9508 5.57842C18.0046 5.65814 18.0342 5.75166 18.0361 5.84778C18.038 5.9439 18.0122 6.03854 17.9617 6.12036C17.9113 6.20218 17.8383 6.26771 17.7515 6.30911L9.99984 9.99994ZM9.99984 18.3333C13.2215 18.3333 15.8332 17.0274 15.8332 15.4166C15.8332 13.8058 13.2215 12.4999 9.99984 12.4999C6.77817 12.4999 4.1665 13.8058 4.1665 15.4166C4.1665 17.0274 6.77817 18.3333 9.99984 18.3333Z" stroke="black" stroke-width="1.5" stroke-linecap="round" stroke-linejoin="round"/>
</svg>
