<svg width="20" height="20" viewBox="0 0 20 20" fill="none" xmlns="http://www.w3.org/2000/svg">
<g id="lucide:clipboard-list">
<g id="Group">
<path id="Vector" d="M12.4998 1.66675H7.49984C7.0396 1.66675 6.6665 2.03984 6.6665 2.50008V4.16675C6.6665 4.62699 7.0396 5.00008 7.49984 5.00008H12.4998C12.9601 5.00008 13.3332 4.62699 13.3332 4.16675V2.50008C13.3332 2.03984 12.9601 1.66675 12.4998 1.66675Z" stroke="#2F2F2F" stroke-width="1.66667" stroke-linecap="round" stroke-linejoin="round"/>
<path id="Vector_2" d="M13.3333 3.3335H14.9999C15.4419 3.3335 15.8659 3.50909 16.1784 3.82165C16.491 4.13421 16.6666 4.55814 16.6666 5.00016V16.6668C16.6666 17.1089 16.491 17.5328 16.1784 17.8453C15.8659 18.1579 15.4419 18.3335 14.9999 18.3335H4.99992C4.55789 18.3335 4.13397 18.1579 3.82141 17.8453C3.50885 17.5328 3.33325 17.1089 3.33325 16.6668V5.00016C3.33325 4.55814 3.50885 4.13421 3.82141 3.82165C4.13397 3.50909 4.55789 3.3335 4.99992 3.3335H6.66659M9.99992 9.16683H13.3333M9.99992 13.3335H13.3333M6.66659 9.16683H6.67492M6.66659 13.3335H6.67492" stroke="#2F2F2F" stroke-width="1.66667" stroke-linecap="round" stroke-linejoin="round"/>
</g>
</g>
</svg>
