<svg width="20" height="20" viewBox="0 0 20 20" fill="none" xmlns="http://www.w3.org/2000/svg">
<path d="M13.333 18.3334H14.9997C15.4417 18.3334 15.8656 18.1578 16.1782 17.8453C16.4907 17.5327 16.6663 17.1088 16.6663 16.6667V5.83341L12.4997 1.66675H4.99967C4.55765 1.66675 4.13372 1.84234 3.82116 2.1549C3.5086 2.46746 3.33301 2.89139 3.33301 3.33341V5.83341" stroke="black" stroke-width="1.66667" stroke-linecap="round" stroke-linejoin="round"/>
<path d="M11.6665 1.66675V5.00008C11.6665 5.44211 11.8421 5.86603 12.1547 6.17859C12.4672 6.49115 12.8911 6.66675 13.3332 6.66675H16.6665" stroke="black" stroke-width="1.66667" stroke-linecap="round" stroke-linejoin="round"/>
<path d="M6.6665 18.3335C9.42793 18.3335 11.6665 16.0949 11.6665 13.3335C11.6665 10.5721 9.42793 8.3335 6.6665 8.3335C3.90508 8.3335 1.6665 10.5721 1.6665 13.3335C1.6665 16.0949 3.90508 18.3335 6.6665 18.3335Z" stroke="black" stroke-width="1.66667" stroke-linecap="round" stroke-linejoin="round"/>
<path d="M7.9165 14.5834L6.6665 13.5417V11.6667" stroke="black" stroke-width="1.66667" stroke-linecap="round" stroke-linejoin="round"/>
</svg>
