<svg width="20" height="20" viewBox="0 0 20 20" fill="none" xmlns="http://www.w3.org/2000/svg">
<path d="M15.4168 5.83341C16.5674 5.83341 17.5002 4.90067 17.5002 3.75008C17.5002 2.59949 16.5674 1.66675 15.4168 1.66675C14.2662 1.66675 13.3335 2.59949 13.3335 3.75008C13.3335 4.90067 14.2662 5.83341 15.4168 5.83341Z" stroke="black" stroke-width="1.25"/>
<path d="M7.5 14.1667L6.66667 15.1667C6.05167 15.9051 5.74417 16.2734 5.325 16.4701C4.90583 16.6667 4.425 16.6667 3.46417 16.6667H2.5" stroke="black" stroke-width="1.25" stroke-linecap="round"/>
<path d="M3.02398 7.48669C2.87988 7.56869 2.77425 7.70457 2.73034 7.86445C2.70859 7.94361 2.70265 8.02628 2.71286 8.10774C2.72306 8.18919 2.74921 8.26784 2.78981 8.33919C2.83041 8.41055 2.88467 8.4732 2.94948 8.52358C3.0143 8.57397 3.0884 8.61109 3.16756 8.63284C3.32744 8.67675 3.49821 8.65536 3.64231 8.57336L3.02398 7.48669ZM17.4998 10.625C17.6656 10.625 17.8245 10.5592 17.9418 10.442C18.059 10.3248 18.1248 10.1658 18.1248 10C18.1248 9.83427 18.059 9.6753 17.9418 9.55809C17.8245 9.44088 17.6656 9.37503 17.4998 9.37503V10.625ZM4.22148 6.80669L3.02398 7.48669L3.64231 8.57336L4.83814 7.89336L4.22148 6.80669ZM12.6048 8.78419L12.6573 8.86169L13.6973 8.16836L13.6448 8.09086L12.6048 8.78419ZM9.20481 4.92253C9.12914 4.9149 9.05328 4.90934 8.97731 4.90586L8.92231 6.15419C8.96287 6.15586 9.01398 6.15975 9.07564 6.16586L9.20481 4.92253ZM4.83814 7.89336C6.77064 6.79586 7.65981 6.30253 8.54731 6.18003L8.37648 4.94169C7.19398 5.10503 6.06148 5.76086 4.22148 6.80669L4.83814 7.89336ZM15.9506 10.625H17.4998V9.37503H15.9498L15.9506 10.625ZM8.97731 4.90586C8.77664 4.89971 8.57582 4.9117 8.37731 4.94169L8.54731 6.18003C8.69564 6.16003 8.81564 6.14836 8.92231 6.15419L8.97731 4.90586ZM12.6573 8.86253C13.0188 9.40468 13.5085 9.84921 14.083 10.1567C14.6575 10.4641 15.299 10.625 15.9506 10.625V9.37503C15.5047 9.37493 15.0658 9.26475 14.6727 9.05425C14.2796 8.84374 13.9445 8.53945 13.6973 8.16836L12.6573 8.86253ZM13.6448 8.09086C12.664 6.61919 11.1906 5.12919 9.20481 4.92253L9.07564 6.16586C10.4948 6.31336 11.6873 7.40753 12.6048 8.78419L13.6448 8.09086Z" fill="black"/>
<path d="M11.6665 7.0835L9.81651 9.39683C9.11901 10.2677 8.77068 10.7035 8.71485 11.1777C8.68374 11.4443 8.71747 11.7144 8.81318 11.9652C8.98318 12.4118 9.42735 12.7485 10.3173 13.4227C10.9948 13.936 11.3332 14.1918 11.5632 14.5277C11.6943 14.7204 11.7971 14.9271 11.8715 15.1477C11.9998 15.5327 11.9998 15.9577 11.9998 16.8077V18.3335" stroke="black" stroke-width="1.25" stroke-linecap="round"/>
</svg>
