<svg width="20" height="20" viewBox="0 0 20 20" fill="none" xmlns="http://www.w3.org/2000/svg">
<path d="M11.6667 1.66675V5.00008C11.6667 5.44211 11.8423 5.86603 12.1548 6.17859C12.4674 6.49115 12.8913 6.66675 13.3333 6.66675H16.6667M12.5 15.0001C12.5 14.337 12.2366 13.7012 11.7678 13.2323C11.2989 12.7635 10.663 12.5001 10 12.5001C9.33696 12.5001 8.70107 12.7635 8.23223 13.2323C7.76339 13.7012 7.5 14.337 7.5 15.0001" stroke="black" stroke-width="1.66667" stroke-linecap="round" stroke-linejoin="round"/>
<path d="M12.5002 1.66675H5.00016C4.55814 1.66675 4.13421 1.84234 3.82165 2.1549C3.50909 2.46746 3.3335 2.89139 3.3335 3.33341V16.6667C3.3335 17.1088 3.50909 17.5327 3.82165 17.8453C4.13421 18.1578 4.55814 18.3334 5.00016 18.3334H15.0002C15.4422 18.3334 15.8661 18.1578 16.1787 17.8453C16.4912 17.5327 16.6668 17.1088 16.6668 16.6667V5.83341L12.5002 1.66675Z" stroke="black" stroke-width="1.66667" stroke-linecap="round" stroke-linejoin="round"/>
<path d="M10.0002 12.5001C10.9206 12.5001 11.6668 11.7539 11.6668 10.8334C11.6668 9.91294 10.9206 9.16675 10.0002 9.16675C9.07969 9.16675 8.3335 9.91294 8.3335 10.8334C8.3335 11.7539 9.07969 12.5001 10.0002 12.5001Z" stroke="black" stroke-width="1.66667" stroke-linecap="round" stroke-linejoin="round"/>
</svg>
