<svg width="1920" height="1080" viewBox="0 0 1920 1080" fill="none" xmlns="http://www.w3.org/2000/svg">
<g clip-path="url(#clip0_577_3623)">
<rect width="1920" height="1080" fill="#F1F1F1"/>
<path d="M-239.148 748.214L65.1536 235.591L262.866 278.637L325.744 871.203L169.254 837.131L159.648 721.504L-25.4687 681.2L-81.894 782.451L-239.148 748.214ZM149.993 604.266L133.509 406.386L128.929 405.389L32.0525 578.588L149.993 604.266Z" fill="#C6E6B5"/>
<path d="M877.085 -17.8173L1297.8 -264.096L1358.58 -160.266L1211.6 -74.2258L1436.57 310.083L1309.81 384.283L1084.85 -0.0263057L937.865 86.0135L877.085 -17.8173Z" fill="#C6E6B5"/>
<path d="M1663.32 555.844L1569.53 898.538L1575.11 902.821L1882.03 723.84L2028.87 836.631L1684.31 1285.2L1569.07 1196.68L1771.81 932.742L1768.09 929.887L1465.5 1112.2L1394.87 1057.95L1495.05 717.2L1491.33 714.345L1287.17 980.139L1171.93 891.619L1516.49 443.054L1663.32 555.844Z" fill="#C6E6B5"/>
</g>
<defs>
<clipPath id="clip0_577_3623">
<rect width="1920" height="1080" fill="white"/>
</clipPath>
</defs>
</svg>
